<svg height="40" viewBox="0 0 116 40" width="116" xmlns="http://www.w3.org/2000/svg" xmlns:xlink="http://www.w3.org/1999/xlink"><linearGradient id="a" x1="0%" x2="99.999994%" y1="49.99999%" y2="49.99999%"><stop offset="0" stop-color="#9588ff"/><stop offset="1" stop-color="#6d3cff"/></linearGradient><linearGradient id="b" x1="0%" x2="100.000004%" y1="50.000004%" y2="50.000004%"><stop offset="0" stop-color="#c188ff"/><stop offset="1" stop-color="#8d50ff"/></linearGradient><linearGradient id="c" x1="-.000035%" x2="100.000035%" y1="49.999976%" y2="49.999976%"><stop offset="0" stop-color="#c188ff"/><stop offset="1" stop-color="#9281ff"/></linearGradient><g fill="none"><path d="m25.3939394 13.7229437c-.017316-.017316-.034632-.034632-.0692641-.051948l-17.35930733-13.51515154c-.1991342-.14718615-.45887446-.18181819-.67532468-.07792208-.22510823.09523809-.36363636.32900433-.36363636.57142857l-.32900433 22.03463205v.3116883.034632c0 6.4502165 5.2380952 11.6969697 11.6969697 11.6969697s11.6970923-5.2380952 11.6970923-11.6969697c.0171934-3.7922078-1.8009884-7.1688311-4.5975252-9.3073593zm-17.20346321-11.76623374 12.28571431 9.54978354c-.7012987-.1298701-1.4285715-.1991342-2.1818182-.1991342-4.4675325 0-8.35497836 2.5194805-10.33766234 6.2077922zm10.11255411 31.47186144c-5.7316017 0-10.3982684-4.6666666-10.41558441-10.3982684v-.3116883c.16450216-5.6017316 4.77056281-10.1038961 10.39826841-10.1038961 5.7316017 0 10.4156324 4.6666667 10.4156324 10.4155844.017268 5.7229438-4.6493986 10.3982684-10.3983164 10.3982684z" fill="url(#a)"/><path d="m18.4329004 18.6666667c-.017316 0-.017316-.0173161-.017316-.0173161l-17.28138527-13.93939389c-.19913419-.16450216-.45887445-.1991342-.68398268-.07792208-.22510822.0952381-.36363636.32900433-.36363636.57142857l-.03463204 22.7532468v.077922.2251083c0 6.4502164 5.23809524 11.6969697 11.69696965 11.6969697 6.4588745 0 11.6970813-5.2380953 11.6970813-11.6883117.0172045-3.965368-1.9827955-7.4891775-5.0130986-9.6017316zm-17.07359304-12.12121215 12.69264074 10.23376625c-.7532468-.1471862-1.5238096-.2251082-2.3116884-.2251082-4.51948048 0-8.46753243 2.5887445-10.39826836 6.3549783zm10.38961034 32.12121215c-5.73160168 0-10.41558437-4.6666667-10.41558437-10.4155844 0-5.7316018 4.66666667-10.4155845 10.41558437-10.4155845 5.7316018 0 10.4155845 4.6666667 10.4155845 10.4155845 0 5.7489177-4.6666667 10.4155844-10.4155845 10.4155844z" fill="url(#b)"/><path d="m.72727273 5.84415584c-.21645022 0-.40692641-.09523809-.53679654-.29437229-.1991342-.29437229-.11255411-.7012987.18181818-.9004329l6.84848485-4.53679654c.2943723-.1991342.7012987-.11255411.9004329.18181818.1991342.2943723.11255411.70129871-.18181818.9004329l-6.85714286 4.52813853c-.11255411.08658009-.24242424.12121212-.35497835.12121212z" fill="url(#c)"/><g fill="#fff"><path d="m42.5108225 29.5757576c-.3809524-.017316-.7705628-.0346321-1.1428571-.0692641-.3722944-.034632-.7705628-.0692641-1.1428572-.1125541-.3809524-.0519481-.7186147-.1125541-1.030303-.1991342v-16.1818182c.3116883-.0779221.6580087-.1471861 1.030303-.1991342.3809524-.051948.7532468-.0779221 1.1428572-.1125541.3809523-.034632.7705627-.0519481 1.1428571-.0692641.3809524-.017316.7186147-.017316 1.0649351-.017316.9350649 0 1.8181818.0692641 2.6406926.2164502.8225108.1471862 1.5411256.3896104 2.1298701.7359308.6060607.3463203 1.0822511.8051948 1.4285715 1.3593073.3463203.5541126.5281385 1.2640693.5281385 2.0779221 0 .9177489-.2164502 1.6709957-.6406926 2.2597403-.4242425.5887446-.987013 1.030303-1.6883117 1.3073593.9523809.2943723 1.7229437.7532467 2.2770563 1.3766233.5541125.6233767.8484848 1.5064936.8484848 2.6493507 0 1.6709957-.6060606 2.9350649-1.8008658 3.7662338-1.1948052.8311688-3.0995671 1.2640692-5.6969697 1.2640692-.3549784-.034632-.7186147-.034632-1.0909091-.051948zm1.3246753-9.7835498c.5541126 0 1.0995671-.034632 1.5930736-.1125541.5108225-.0779221.935065-.2251082 1.3073593-.4242424.3636364-.2164503.6580087-.4761905.8658009-.8225109.2164502-.3463203.3116883-.7705627.3116883-1.2813852 0-.4761905-.1125541-.8831169-.3290043-1.2121213-.2164502-.3290043-.5281385-.5887445-.9004329-.8051948-.3809524-.1991342-.8311688-.3463203-1.3419914-.4415584-.5281385-.0952381-1.064935-.1471862-1.6363636-.1471862s-1.030303 0-1.3593074.0173161c-.3290043.017316-.6233766.034632-.8831168.069264v5.1601732zm-2.4069264 7.7489177c.1818182.0173161.3809524.0346321.6060606.0519481.1991342.017316.4415585.034632.7186148.034632.2770562 0 .5887445.017316.9523809.017316.6753247 0 1.3073593-.051948 1.9134199-.1298701s1.1341992-.2424242 1.5930736-.4761905c.4588745-.2251082.8225108-.5367965 1.0995671-.9350649.2770563-.4069264.4069264-.9004329.4069264-1.5238095 0-.5367966-.0952381-1.012987-.3116883-1.3939394-.1991342-.3809524-.4935065-.6753247-.8831169-.9004329-.3809524-.2251082-.8311688-.3896104-1.3766234-.4761905-.5281385-.0952381-1.1341991-.1471861-1.7835497-.1471861h-2.935065z"/><path d="m53.4718615 14.2597403c-.2770563-.2597403-.4069264-.6233767-.4069264-1.0649351s.1298701-.8051948.4069264-1.0649351c.2770562-.2597402.6060606-.3896104.995671-.3896104s.7186147.1298702.995671.3896104c.2770562.2597403.4069264.6233767.4069264 1.0649351s-.1298702.8051948-.4069264 1.0649351c-.2770563.2597402-.6060606.3896103-.995671.3896103s-.7186148-.1298701-.995671-.3896103z"/><path d="m53.385281 16.926407h2.181818v12.528139h-2.181818z"/><path d="m65.1341991 28.6926407c-.5367965.1991342-1.1601731.2943723-1.8874459.2943723-.7359307 0-1.4285714-.1125541-2.077922-.3636364-.6580087-.2424242-1.2121212-.6060606-1.7056277-1.1168831s-.8658009-1.1341991-1.1428572-1.8874459c-.2770563-.7532467-.4242424-1.6536796-.4242424-2.7012987 0-.9177489.1298701-1.7489177.3896104-2.5194805.2597402-.7705628.6580086-1.4285714 1.1601731-1.982684.5108226-.5541125 1.1341992-.987013 1.8701299-1.2900433.7359308-.3030303 1.5757576-.4761905 2.4935065-.4761905 1.012987 0 1.8961039.0779221 2.6666667.2251083.7532467.1471861 1.3939394.2943723 1.9134199.4242424v11.1861472c0 1.9307359-.4935065 3.3246753-1.4545455 4.1904762-.9610389.8658008-2.4415584 1.2900433-4.4069264 1.2900433-.7705627 0-1.4891775-.0692641-2.1818182-.1991342-.6839826-.1298702-1.2813852-.2770563-1.7662337-.4588745l.3896104-1.9480519c.4415584.1818181.9696969.3290043 1.6017316.4761904.6406926.1298702 1.2900433.1991342 1.982684.1991342 1.2900432 0 2.2251082-.2597402 2.8051948-.8051948.5714285-.5281385.8484848-1.3766233.8484848-2.5194805v-.5281385c-.1731602.1471861-.5367965.3116883-1.0735931.5108225zm.1904762-9.974026c-.3636363-.051948-.8658008-.0779221-1.4891775-.0779221-1.1774891 0-2.077922.3896104-2.7186147 1.1774892-.6406926.7878788-.9523809 1.8354979-.9523809 3.1255411 0 .7186148.0952381 1.3419914.2597402 1.8528139.1818182.5108225.4242424.9350649.7186147 1.2813853.3116884.3463203.6580087.5887446 1.0649351.7532467.3896104.1645022.8051948.2424243 1.2294372.2424243.5714286 0 1.1168832-.0779221 1.5930736-.2424243.4935065-.1645021.8658009-.3636363 1.1428572-.5887446v-7.3246753c-.1904762-.0865801-.4848485-.1385281-.8484849-.1991342z"/><path d="m71.5064935 17.3073593c.4069264-1.0995671.987013-2 1.6883117-2.7359307.7012987-.7359308 1.5411255-1.2813853 2.4935065-1.6536797.9523809-.3809524 1.9480519-.5541125 3.012987-.5541125 1.047619 0 2.034632.1818181 2.961039.5541125.9350649.3809524 1.7489177.9177489 2.4588744 1.6536797.7099567.7359307 1.2640693 1.6363636 1.6709957 2.7359307s.6233766 2.3549784.6233766 3.7835498-.2164502 2.6839827-.6233766 3.7835498-.969697 2-1.6709957 2.7359307-1.5238095 1.2813853-2.4588744 1.6536797c-.935065.3809523-1.91342.5541125-2.961039.5541125-1.0649351 0-2.0606061-.1818182-3.012987-.5541125-.952381-.3809524-1.7662338-.917749-2.4935065-1.6536797-.7012987-.7359307-1.2813853-1.6363636-1.6883117-2.7359307s-.6233766-2.3549784-.6233766-3.7835498.1904762-2.6839827.6233766-3.7835498zm2.1385281 6.5367965c.2424243.8225109.6060607 1.5238096 1.0649351 2.1125542.4588745.5714285 1.030303 1.030303 1.6883117 1.3419913.6753247.3116883 1.4112554.4761905 2.2424242.4761905.8311689 0 1.5757576-.1645022 2.2251083-.4761905.6493506-.3116883 1.2121212-.7532468 1.6709956-1.3419913.4588745-.5714286.8225109-1.2813853 1.0649351-2.1125542.2424242-.8311688.3809524-1.7489177.3809524-2.7532467 0-1.012987-.1298701-1.9307359-.3809524-2.7532468-.2424242-.8225108-.6060606-1.5238095-1.0649351-2.1125541-.4588744-.5714285-1.012987-1.030303-1.6709956-1.3419913-.6580087-.3116883-1.4112554-.4761905-2.2251083-.4761905-.8225108 0-1.5757575.1645022-2.2424242.4761905s-1.2294372.7532467-1.6883117 1.3419913c-.4588744.5714286-.8225108 1.2813853-1.0649351 2.1125541-.2424242.8311689-.3809523 1.7489178-.3809523 2.7532468.008658 1.012987.1385281 1.9307359.3809523 2.7532467z"/><path d="m99.021645 27.4458874c-.4415584-.7359307-.9350649-1.5064935-1.4372294-2.2943722-.5281385-.8051949-1.0476191-1.6017317-1.6017316-2.4242425-.5541126-.8225108-1.1168831-1.6017316-1.6536797-2.3722943-.5367965-.7705628-1.0822511-1.4718615-1.5930736-2.1645022-.5108225-.6753247-.995671-1.2640693-1.4285714-1.7835498v13.038961h-2.2251082v-16.6926406h1.8008658c.7359307.8051948 1.5238095 1.7402597 2.3549783 2.8051948.8311689 1.064935 1.6709957 2.1645021 2.4935065 3.3073593.8225109 1.1341991 1.5930736 2.2424242 2.3290044 3.3419913.7186147 1.0995671 1.3419913 2.0606061 1.8354978 2.9177489v-12.3722943h2.2251081v16.6926406h-1.896104c-.3636361-.5887445-.7619045-1.2640692-1.203463-2z"/><path d="m105.281385 12.7532468h9.922078v2h-7.645021v4.9610389h6.796536v1.948052h-6.796536v5.7835497h8.233766v2h-10.510823z"/></g></g></svg>