<svg width="96" height="24" viewBox="0 0 96 24" fill="none" xmlns="http://www.w3.org/2000/svg">
<path d="M14 2L10.5 0L6.99999 2L10.5 4L14 2Z" fill="#0DB459"/>
<path d="M1.50898e-06 6L3.49999 4L7 6.00001L3.5 8L3.5 16L10.5 20L17.5 16V8L14 6L17.5 4L21 6L21 18L10.5 24L0 18L1.50898e-06 6Z" fill="#0DB459"/>
<path d="M13.978 14.0126V10.0126L10.478 8.01257L6.97795 10.0126V14.0126L10.478 16.0126L13.978 14.0126Z" fill="#0DB459"/>
<path d="M96 8.08928H93.2295V19.1117H90.1094V8.08928H87.3379V4.88908H96V8.08928Z" fill="#080A0E"/>
<path fill-rule="evenodd" clip-rule="evenodd" d="M68.6641 4.88908H75.334C77.6303 4.88908 79.4919 6.79934 79.4919 9.15575C79.4919 10.0687 79.2124 10.9147 78.7365 11.6086C79.4731 12.4053 79.925 13.4819 79.925 14.6669C79.925 17.1215 77.9859 19.1113 75.5939 19.1113H68.6641V4.88908ZM71.7825 10.2224H75.334C75.9081 10.2224 76.3735 9.74485 76.3735 9.15575C76.3735 8.56665 75.9081 8.08908 75.334 8.08908H71.7825V10.2224ZM71.7825 15.9113H75.5939C76.2636 15.9113 76.8066 15.3541 76.8066 14.6669C76.8066 13.9796 76.2636 13.4224 75.5939 13.4224H71.7825V15.9113Z" fill="#080A0E"/>
<path fill-rule="evenodd" clip-rule="evenodd" d="M62.273 4.88908H55.7764V19.1113H58.8948V14.6669H62.273C62.3739 14.6669 62.4739 14.6636 62.5732 14.6573L63.7023 19.1113H67.0373L65.5667 13.3104C66.473 12.4204 67.0373 11.1668 67.0373 9.77797C67.0373 7.07793 64.9043 4.88908 62.273 4.88908ZM62.273 8.08908H58.8948V11.4669H62.273C63.182 11.4669 63.9189 10.7107 63.9189 9.77797C63.9189 8.84525 63.182 8.08908 62.273 8.08908Z" fill="#080A0E"/>
<path d="M46.0061 4.88908H42.8877V13.778C42.8877 16.969 45.4085 19.5557 48.5181 19.5557C51.6278 19.5557 54.1486 16.969 54.1486 13.778V4.88908H51.0302V13.778C51.0302 15.2016 49.9055 16.3558 48.5181 16.3558C47.1308 16.3558 46.0061 15.2016 46.0061 13.778V4.88908Z" fill="#080A0E"/>
<path fill-rule="evenodd" clip-rule="evenodd" d="M38.1425 13.7779V10.2223C38.1425 8.79864 37.0178 7.64453 35.6305 7.64453C34.2431 7.64453 33.1184 8.79864 33.1184 10.2223V13.7779C33.1184 15.2015 34.2431 16.3556 35.6305 16.3556C37.0178 16.3556 38.1425 15.2015 38.1425 13.7779ZM35.6305 4.44453C32.5208 4.44453 30 7.03133 30 10.2223V13.7779C30 16.9688 32.5208 19.5556 35.6305 19.5556C38.7401 19.5556 41.2609 16.9688 41.2609 13.7779V10.2223C41.2609 7.03133 38.7401 4.44453 35.6305 4.44453Z" fill="#080A0E"/>
<rect x="81.5527" y="4.88802" width="4.15897" height="14.2222" fill="#0DB459"/>
<rect x="83.459" y="4" width="0.344686" height="16" fill="#0DB459"/>
</svg>
