<svg version="1.2" xmlns="http://www.w3.org/2000/svg" viewBox="0 0 168 34" width="168" height="34">
	<title>logo for web-svg</title>
	<defs>
		<linearGradient id="g1" x1="9.6" y1="30" x2="9.2" y2="31.6" gradientUnits="userSpaceOnUse">
			<stop offset="0" stop-color="#cdcbb2" stop-opacity="0"/>
			<stop offset=".3" stop-color="#cdba90"/>
			<stop offset=".8" stop-color="#875a31"/>
			<stop offset="1" stop-color="#583321"/>
		</linearGradient>
		<linearGradient id="g2" x1="15.5" y1="6" x2="9.8" y2="29.5" gradientUnits="userSpaceOnUse">
			<stop offset="0" stop-color="#e5eee9"/>
			<stop offset="1" stop-color="#d3d4c4"/>
		</linearGradient>
		<linearGradient id="g3" x1="15.7" y1="16.4" x2="13.7" y2="19.7" gradientUnits="userSpaceOnUse">
			<stop offset="0" stop-color="#f0f5f1"/>
			<stop offset="1" stop-color="#f0f5f1" stop-opacity="0"/>
		</linearGradient>
		<linearGradient id="g4" x1="12.5" y1="19.1" x2="11.8" y2="23.2" gradientUnits="userSpaceOnUse">
			<stop offset="0" stop-color="#cdcbb2" stop-opacity="0"/>
			<stop offset=".3" stop-color="#cdba90"/>
			<stop offset=".8" stop-color="#875a31"/>
			<stop offset="1" stop-color="#583321"/>
		</linearGradient>
		<linearGradient id="g5" x1="15.4" y1="18" x2="13.1" y2="23" gradientUnits="userSpaceOnUse">
			<stop offset="0" stop-color="#cdcbb2" stop-opacity="0"/>
			<stop offset=".3" stop-color="#cdba90"/>
			<stop offset=".7" stop-color="#906538"/>
			<stop offset="1" stop-color="#875a31"/>
		</linearGradient>
		<linearGradient id="g6" x1="17.7" y1="16.8" x2="17.1" y2="27.2" gradientUnits="userSpaceOnUse">
			<stop offset="0" stop-color="#e5eee9"/>
			<stop offset=".6" stop-color="#b89960"/>
			<stop offset="1" stop-color="#724929"/>
		</linearGradient>
		<linearGradient id="g7" x1="17.2" y1="16.7" x2="16.5" y2="27.1" gradientUnits="userSpaceOnUse">
			<stop offset="0" stop-color="#e5eee9"/>
			<stop offset=".6" stop-color="#b89960"/>
			<stop offset="1" stop-color="#724929"/>
		</linearGradient>
		<linearGradient id="g8" x1="12.5" y1="3.9" x2="15" y2="6.7" gradientUnits="userSpaceOnUse">
			<stop offset="0" stop-color="#ffffff"/>
			<stop offset="1" stop-color="#cdba90"/>
		</linearGradient>
		<linearGradient id="g9" x1="11.1" y1="20.6" x2="11" y2="25.7" gradientUnits="userSpaceOnUse">
			<stop offset="0" stop-color="#cdcbb2" stop-opacity="0"/>
			<stop offset=".8" stop-color="#875a31"/>
			<stop offset="1" stop-color="#583321"/>
		</linearGradient>
		<linearGradient id="g10" x1="13.5" y1="27.5" x2="12.8" y2="28.7" gradientUnits="userSpaceOnUse">
			<stop offset="0" stop-color="#3e2310"/>
			<stop offset=".8" stop-color="#875a31"/>
			<stop offset="1" stop-color="#583321"/>
		</linearGradient>
		<linearGradient id="g11" x1="10.1" y1="30.2" x2="9.6" y2="31.5" gradientUnits="userSpaceOnUse">
			<stop offset="0" stop-color="#794c2b"/>
			<stop offset=".6" stop-color="#875a31"/>
			<stop offset="1" stop-color="#583321"/>
		</linearGradient>
		<linearGradient id="g12" x1="12.6" y1="27.9" x2="12.4" y2="28.2" gradientUnits="userSpaceOnUse">
			<stop offset="0" stop-color="#cdcbb2" stop-opacity="0"/>
			<stop offset=".3" stop-color="#cdba90"/>
			<stop offset="1" stop-color="#cdcbb2" stop-opacity="0"/>
		</linearGradient>
		<linearGradient id="g13" x1="11.3" y1="19.8" x2="10.9" y2="26.9" gradientUnits="userSpaceOnUse">
			<stop offset="0" stop-color="#e5eee9"/>
			<stop offset=".6" stop-color="#c0a878"/>
			<stop offset="1" stop-color="#906d47"/>
		</linearGradient>
	</defs>
	<style>
		.s0 { fill: url(#g1) } 
		.s1 { fill: #442715 } 
		.s2 { fill: #f6f6f6 } 
		.s3 { fill: url(#g2) } 
		.s4 { fill: url(#g3) } 
		.s5 { fill: url(#g4) } 
		.s6 { fill: #4f2d21 } 
		.s7 { fill: url(#g5) } 
		.s8 { fill: url(#g6) } 
		.s9 { fill: url(#g7) } 
		.s10 { fill: url(#g8) } 
		.s11 { fill: url(#g9) } 
		.s12 { fill: url(#g10) } 
		.s13 { fill: url(#g11) } 
		.s14 { fill: #704729 } 
		.s15 { opacity: .3;fill: url(#g12) } 
		.s16 { fill: url(#g13) } 
		.s17 { fill: #dde2d8 } 
	</style>
	<g id="Layer">
	</g>
	<g id="Layer">
		<path id="Layer" class="s0" d="m9.1 30.4c1.4 0.3 2.6 0.6 3.2 1.8-0.6-0.8-1.7-1.2-3.3-1.6-1.7-0.4-2.2-1.9-2.3-2.1 0 0 0.5 1.5 2.4 1.9z"/>
		<path id="Layer" class="s1" d="m10.3 26c-1.1-0.3-2.1-0.7-3.3-1.9 0.9 0.7 2.2 1.3 3.9 2.1-0.2-0.1-0.4-0.1-0.6-0.2z"/>
		<path id="Layer" class="s2" d="m3.4 12.3c-0.2 0.3-1 1.7-1.6 2.1-0.6 0.5-0.9 0.8-0.8 1.3 0 0.4 0.2 0.7 0.1 0.9 0-0.1 0-0.2 0-0.2 0-0.1-0.1-0.2-0.2-0.2-0.1 0-0.1-0.1-0.1-0.1h-0.1c-0.1 0 0-0.1 0-0.1h-0.1c-0.1 0 0-0.2 0-0.3 0-0.1-0.1-0.1-0.1-0.1 0-0.1 0.1-0.2 0.1-0.2l-0.1-0.1 0.2-0.1c0 0-0.1 0-0.1-0.1 0-0.1 0.2-0.4 0.6-0.7 0.4-0.3 0.7-0.7 1.2-1.6 0.5-0.9 1.3-1.6 1.3-1.6 1.3-1.2 3-1.4 3.6-1.5 0.7-0.1 1-0.6 1.3-1.1 0.3-0.5 2.5-4.1 5-6.2 1.8-1.5 3.5-1.9 4.2-1.8-1.3 0.4-2.7 0.6-4.7 3-2.7 3-3.4 4.2-4.1 5.2-0.7 1.1-0.4 1-1.8 1.4-1.4 0.4-3.6 1.7-3.8 2.1z"/>
		<path id="Layer" fill-rule="evenodd" class="s3" d="m23.2 25.8c-0.8 3.4-3.1 5.9-4.1 6.9 0.1-0.1 1.2-2 1.5-3.5 0.3-1.5 0-2-0.1-1.9 0 0.1-0.3 0.8-0.8 1.5 0.6-1.5 1-4 0.2-6.2-0.8-2.1-2.4-3.8-3.1-4.3 0.6 0.4 1.4 2 1.8 3.5 0.4 1.6 0 4.8-0.4 5.7 0.1-0.3 0.3-2.2-0.1-3 0 0-0.1 0.9-0.3 1.4-0.2-1.1-0.6-2.5-1.8-4.3-1.2-1.8-3.3-2.7-4.6-3.6-0.8-0.6-1.6-1.3-2-1.7 0.6 0.7 1.3 1.3 2.2 1.9 1.1 0.8 3.4 2 4.5 4.2 1 2.1 1.4 4.4 1.2 5.7 0-0.6-0.3-2.3-1.4-3.3-1.1-1-4-1.8-6.1-3.7-2.2-1.8-2.6-3.4-2.8-4.3 0.1 1.5 0.5 2.8 1.4 4.4 0.9 1.6 2.3 2.7 3.1 3.2 0.8 0.5 2.9 1.6 4 3.2 1.1 1.6 1.4 3.6 1.5 5-0.4-2.3-1-3.3-2.2-4.4-1.2-1.1-3.3-2-4.4-2.3-1.1-0.3-2.1-0.7-3.3-1.9-1.2-1.2-1.6-2.6-1.8-3.3-0.2-0.7-0.2-1.7-0.8-2.4-0.6-0.7-1.2-0.6-1.7-0.7-0.5-0.1-1.2-0.6-1.5-0.8-0.3-0.2-0.2-0.3-0.2-0.4 0-0.1-0.1-0.2-0.2-0.2-0.1 0-0.1-0.1-0.1-0.1h-0.1c-0.1 0 0-0.1 0-0.1h-0.1c-0.1 0 0-0.2 0-0.3 0-0.1-0.1-0.1-0.1-0.1 0-0.1 0.1-0.2 0.1-0.2l-0.1-0.1 0.2-0.1c0 0-0.1 0-0.1-0.1 0-0.1 0.2-0.4 0.6-0.7 0.4-0.3 0.7-0.7 1.2-1.6 0.5-0.9 1.3-1.6 1.3-1.6 1.3-1.2 3-1.4 3.6-1.5 0.7-0.1 1-0.6 1.3-1.1 0.3-0.5 2.4-4.1 5-6.2 2.6-2.1 4.8-2.1 4.6-1.5-0.2 0.6-1.6 4.6-3 6.5-1.4 1.8-4.4 3.5-4.7 3.6 0.4 0.9 1.9 1.7 2.2 1.7 2.5 0 4.2 0.1 7.2 2.2 3 2.2 4.2 7.5 3.3 10.9zm-14.3-10.2q0.1 0.2 0.5 0.7-0.3-0.4-0.5-0.7zm7.8 2.6q0 0 0.1 0.1-0.1-0.1-0.1-0.1zm-10.6-5.7c-0.3-0.2-1.1-0.3-1.7 0.1-0.6 0.4-0.8 1-0.8 1.3 0.2-0.3 0.4-0.4 1.1-0.6 0.7-0.2 1.1-0.3 1.4-0.8zm0.6 7.4c-0.2 3.4 2.9 5.1 4.8 5.2-4.3-2.2-4.8-5.2-4.8-5.2zm5.3-11.5c1.5-0.8 2.7-1.8 3-3-0.7 0.1-2.8 0.9-3.6 1.9-0.8 1-1.8 2.7-2 3.3 0.4-0.6 1.2-1.3 2.6-2.2z"/>
		<path id="Layer" class="s4" d="m16.6 18c1.6 1.5 1.8 3.3 1.9 4.6-0.6-4-3.9-5.8-5.3-6.3-1.4-0.5-3.4-1.2-3.4-1.2 2.7 0.6 5.3 1.5 6.8 2.9z"/>
		<path id="Layer" class="s5" d="m16.1 22.8c0.9 2.1 1.2 4.1 1 5.4 0-0.6-0.3-2.3-1.4-3.3-1.1-1-4-1.8-6.1-3.7-1.4-1.2-2-2.3-2.4-3.1-0.3-1-0.6-2.4-0.3-1.9 0 0 1 2.4 3.5 3.4 1.9 0.7 4.3 1 5.7 3.2z"/>
		<path id="Layer" class="s6" d="m11.5 22.2c-1.6-0.8-2.8-2-3.5-2.8l0.1 0.1c0 0 0 0 0 0.1l0.1 0.1c0 0.1 0.1 0.1 0.1 0.1 0 0.1 0.1 0.1 0.1 0.1l0.1 0.1c0 0.1 0.1 0.1 0.1 0.1l0.1 0.1c0.1 0.1 0.1 0.1 0.1 0.1 0.1 0.1 0.1 0.1 0.1 0.1 0.1 0.1 0.1 0.1 0.2 0.2 0.1 0.1 0.1 0.1 0.2 0.2 2.1 1.9 5 2.7 6.1 3.7q0.6 0.5 0.9 1.2c-0.2-1.6-2.7-2.4-4.8-3.5z"/>
		<path id="Layer" class="s7" d="m18.2 27.6c0.1-0.3 0.3-2.2-0.1-3 0 0-0.1 0.9-0.3 1.4-0.2-1.1-0.6-2.5-1.8-4.3-1.2-1.8-3.3-2.7-4.6-3.6-1.1-0.8-2.1-1.6-2.5-2.1 2 1.2 7.4 1.5 9.3 4.5 0.2 0.4 0.4 0.9 0.5 1.4 0.4 1.6 0.1 4.7-0.5 5.7z"/>
		<g id="Layer">
			<g id="Layer">
				<path id="Layer" class="s8" d="m22.1 22.1c0.6 3.1 0.5 5.7-0.7 7.9-0.8 1.3-1.7 2.2-2.2 2.7 0.1-0.1 1.2-2 1.5-3.5 0.3-1.5 0-2-0.1-1.9 0 0.1-0.3 0.8-0.8 1.5 0.6-1.5 1-4 0.2-6.2-0.8-2.1-2.5-3.8-3.2-4.3-0.9-0.9-2.3-2-4.4-2.5 3.7 0 8.8 1.9 9.7 6.3z"/>
				<path id="Layer" class="s9" d="m16.9 18.3q0.2 0.2 0.3 0.3-0.1-0.2-0.3-0.3z"/>
			</g>
		</g>
		<path id="Layer" class="s10" d="m15.7 4.4c0.7-1.4 1.5-3.1 2.2-3.7 0.1 0 0.2 0.2 0.2 0.3-0.2 0.6-1.6 4.6-3 6.5-1.4 1.8-4.4 3.5-4.7 3.6-0.1-0.1-0.2-0.1-0.2-0.1 0 0 0.8-0.8 2.3-2 1.5-1.2 2.4-2.8 3.2-4.6z"/>
		<path id="Layer" class="s11" d="m15.6 28c1 1.6 1.3 3.5 1.4 4.8-0.4-2.3-1-3.3-2.2-4.4-1.2-1.1-3.3-2-4.4-2.3-1.1-0.3-2.1-0.7-3.3-1.9-1.2-1.2-1.6-2.6-1.8-3.3-0.1-0.3-0.1-0.7-0.2-1.1 0.3 0.8 0.9 2 2.4 3.1 1 1.5 2.8 2.2 4 2.3 0-0.1-0.1-0.1-0.1-0.1 2.5 1 3.3 1.5 4.2 2.9z"/>
		<path id="Layer" class="s12" d="m15.3 30.9c-1.2-2-2.1-1.9-3-2.3-0.9-0.4-2.1-1.9-2.1-1.9 1.9 0.4 4.1 1.6 5.1 4.2z"/>
		<path id="Layer" class="s13" d="m6.7 28.5c0 0 0.4 1.5 2.4 1.9 1.9 0.4 3.4 0.8 3.6 3.6-0.3-1.1-0.8-1.8-1.7-2.1-0.9-0.3-2.3-0.4-3.3-1.5-1.1-1.1-1.2-2-1-1.9z"/>
		<path id="Layer" class="s14" d="m11.4 25.3c1.3 0.6 3.1 1.7 4.2 3.7-0.7-1.6-1.9-3-4.2-3.7z"/>
		<path id="Layer" class="s15" d="m14.1 29.2c-0.5-0.4-3.1-1.4-3.4-2.1 1.1 0.5 2.6 0.9 3.4 2.1z"/>
		<path id="Layer" class="s16" d="m11.5 25.2c0.1 0 0.1 0 0.2 0-2.5-1.2-3.7-2.7-4.3-3.8-0.1-0.6 0-1.2 0.2-1.8 0.2 0.5 0.5 1.1 0.8 1.7 0.9 1.6 2.3 2.7 3.1 3.2 0.7 0.4 2.3 1.4 3.5 2.7-0.7-0.5-3.3-2.2-3.5-2z"/>
	</g>
	<g id="Layer">
		<path id="Layer" fill-rule="evenodd" class="s17" d="m51.1 11.4v12.2c0 1.8-1.4 2.6-4.5 1.2-0.3-0.1-0.4-0.3-0.3-0.5 0.1-0.2 0.3-0.3 0.5-0.3 2.5 0.4 2.7 0.2 2.7-1v-3.8h-6.4c-0.3 2.7-1.1 4.7-3 6.3q-0.3 0.3-0.6 0c-0.2-0.2-0.1-0.4 0-0.6 2.1-2.6 2.2-5.9 2.2-9.4v-4.2c0-0.5 0.3-0.9 0.9-0.9h7.7c0.5 0.1 0.8 0.4 0.8 1zm-1.6 6.8v-2.8h-6.2v0.4c0 0.9 0 1.7-0.1 2.4zm-6.2-6.4v2.5h6.2v-2.5c0-0.1-0.1-0.2-0.2-0.2h-5.8c-0.2 0-0.2 0.1-0.2 0.2z"/>
		<path id="Layer" fill-rule="evenodd" class="s17" d="m69.1 25.3c-1.2 0.1-2.6 0.1-3.8 0-1.6-0.1-2.1-0.3-2.1-1.8v-4.2c-1.1 3-3.3 5.1-7 6.3-0.3 0.1-0.5 0-0.6-0.2-0.1-0.2 0-0.5 0.3-0.6 3.2-1.5 4.9-3.3 5.8-5.6h-3.2c-0.5 0-0.9-0.3-0.9-0.9v-2.3c-0.4 0.3-0.8 0.6-1.3 0.8-0.3 0.2-0.5 0.1-0.6-0.1-0.1-0.2-0.1-0.4 0.1-0.6 2.1-1.7 3.2-3.7 4.1-6 0.2-0.5 0.6-0.8 1.2-0.6 0.6 0.2 0.7 0.7 0.5 1.2-0.1 0.3-0.3 0.6-0.4 0.9h3.2c0.3-0.3 0.9-0.4 1.3-0.1 0.5 0.3 0.5 0.8 0.2 1.3-0.5 0.7-1 1.2-1.4 1.7h3.4c0.5 0 0.9 0.3 0.9 0.9v3.1c0 0.5-0.3 0.9-0.9 0.9h-3.1v3.6c0 0.7 0.2 0.9 0.9 0.9 1 0.1 2.2 0.1 3.2 0 0.8-0.1 0.9-0.4 0.9-2.6 0-0.3 0.1-0.5 0.4-0.5 0.3 0 0.4 0.1 0.4 0.4 0.4 2.7 0.3 4-1.5 4.1zm-7.2-6.9c0.3-0.9 0.4-1.9 0.5-2.9h-3.2c-0.1 0-0.2 0.1-0.2 0.2v2.5c0 0.1 0.1 0.2 0.2 0.2zm-1.3-5.8c-0.4 0.7-1 1.4-1.5 2h4.1c0.4-0.6 0.7-1.1 1-1.7 0.1-0.1 0-0.2-0.2-0.2h-3.4zm6.4 2.9h-3c-0.1 1.1-0.2 2-0.5 2.9h3.5c0.1 0 0.2-0.1 0.2-0.2v-2.5c0-0.1-0.1-0.2-0.2-0.2zm1.5 7.1c-0.3 0.4-0.7 0.4-1 0-0.6-0.7-1.4-1.3-2.1-1.9-0.2-0.2-0.2-0.4-0.1-0.6 0.1-0.2 0.3-0.2 0.6-0.1 0.8 0.3 1.7 0.9 2.5 1.5 0.4 0.4 0.4 0.8 0.1 1.1z"/>
		<path id="Layer" class="s17" d="m90.4 23.6v-7.5c0-0.6 0.1-1.7 0.1-2.2l-0.1-0.1c-1.1 3.1-2.6 7.4-3.4 9.2-0.3 0.6-0.5 0.8-1.1 0.8-0.6 0-1-0.3-1.2-0.8-0.7-1.8-2.3-6.1-3.5-9.2l-0.1 0.1c0.1 0.5 0.1 1.6 0.1 2.2v7.5c0 0.5-0.3 0.8-0.8 0.8-0.5 0-0.8-0.3-0.8-0.8v-11c0-0.7 0.5-1.2 1.2-1.2 0.6 0 1 0.3 1.2 1 1 2.5 2.6 6.8 3.8 9.8h0.1c1.2-3.1 2.5-6.7 3.6-9.8 0.2-0.7 0.6-1 1.3-1 0.7 0 1.1 0.4 1.1 1.2v11.1c0 0.5-0.3 0.8-0.8 0.8-0.5 0-0.7-0.4-0.7-0.9z"/>
		<path id="Layer" fill-rule="evenodd" class="s17" d="m95.1 17.8c0-3.7 2-6.3 5.5-6.3 3.6 0 5.5 2.7 5.5 6.3 0 4.2-2 6.6-5.6 6.6-3.4 0-5.4-2.4-5.4-6.6zm9.3 0c0-3.3-1.4-5.2-3.8-5.2-2.4 0-3.8 1.9-3.8 5.2 0 3.4 1.3 5.3 3.8 5.3 2.5 0.1 3.8-1.7 3.8-5.3z"/>
		<path id="Layer" fill-rule="evenodd" class="s17" d="m108.6 17.8c0-3.7 2-6.3 5.5-6.3 3.6 0 5.5 2.7 5.5 6.3 0 4.2-2 6.6-5.6 6.6-3.4 0-5.4-2.4-5.4-6.6zm9.3 0c0-3.3-1.4-5.2-3.8-5.2-2.4 0-3.8 1.9-3.8 5.2 0 3.4 1.3 5.3 3.8 5.3 2.5 0.1 3.8-1.7 3.8-5.3z"/>
		<path id="Layer" class="s17" d="m129.6 23.5c-1.2-2-3.7-6.9-5.4-10h-0.1c0.1 0.6 0.1 1.2 0.1 1.9v8.2c0 0.5-0.3 0.8-0.7 0.8-0.5 0-0.8-0.3-0.8-0.8v-11.1c0-0.6 0.5-1.1 1.1-1.1 0.6 0 1 0.3 1.4 1.1 1.3 2.4 3.5 6.7 5.4 9.9h0.1c-0.1-0.5-0.1-1.3-0.1-1.9v-8.2c0-0.5 0.2-0.8 0.7-0.8 0.5 0 0.8 0.3 0.8 0.8v11.1c0 0.7-0.4 1.1-1.1 1.1-0.5-0.1-1-0.4-1.4-1z"/>
		<path id="Layer" class="s17" d="m144.1 12.3q0 0.6-0.6 0.6h-3.3v10.7c0 0.5-0.3 0.8-0.8 0.8-0.5 0-0.8-0.3-0.8-0.8v-10.7h-3.3q-0.6 0-0.6-0.6 0-0.6 0.6-0.6h8.2q0.6 0 0.6 0.6z"/>
		<path id="Layer" fill-rule="evenodd" class="s17" d="m145.5 17.8c0-3.7 2-6.3 5.5-6.3 3.6 0 5.5 2.7 5.5 6.3 0 4.2-2 6.6-5.6 6.6-3.4 0-5.4-2.4-5.4-6.6zm9.3 0c0-3.3-1.4-5.2-3.8-5.2-2.4 0-3.8 1.9-3.8 5.2 0 3.4 1.3 5.3 3.8 5.3 2.5 0.1 3.8-1.7 3.8-5.3z"/>
		<path id="Layer" class="s17" d="m159.6 23.6v-11.4c0-0.5 0.3-0.8 0.8-0.8 0.5 0 0.8 0.3 0.8 0.8v5.8c0.9-0.9 1.6-1.8 2.4-2.8l2.9-3.5c0.3-0.3 0.6-0.4 1-0.1 0.4 0.3 0.4 0.7 0.1 1-1.2 1.4-2.9 3.4-4.1 4.7l4.4 5.8c0.3 0.4 0.3 0.8-0.2 1.1-0.5 0.3-0.8 0.2-1.1-0.2l-4.2-5.7-1.3 1.4v3.9c0 0.5-0.3 0.8-0.8 0.8-0.5 0-0.7-0.3-0.7-0.8z"/>
	</g>
</svg>